<svg width="17" height="18" viewBox="0 0 17 18" fill="none" xmlns="http://www.w3.org/2000/svg">
<path d="M2.5533 12.0042C2.0546 11.7641 1.62354 11.4036 1.29901 10.9552C0.974483 10.5069 0.766707 9.98477 0.694434 9.43603C0.622162 8.88729 0.687668 8.32918 0.885041 7.81209C1.08241 7.295 1.40544 6.83519 1.82497 6.47417M1.84997 6.40667C1.57667 5.99771 1.45689 5.50524 1.51182 5.01644C1.56675 4.52765 1.79286 4.07405 2.15012 3.73596C2.50737 3.39786 2.97273 3.19707 3.46381 3.16914C3.95489 3.14121 4.44001 3.28793 4.8333 3.58333M5.03164 3.6375C4.8987 3.35504 4.83094 3.04631 4.83337 2.73414C4.83579 2.42196 4.90835 2.11433 5.04566 1.83397C5.18298 1.55361 5.38155 1.30769 5.62669 1.11439C5.87183 0.921099 6.15728 0.785367 6.46194 0.717232C6.7666 0.649097 7.08267 0.650301 7.3868 0.720754C7.69093 0.791207 7.97533 0.929108 8.219 1.12426C8.46266 1.31942 8.65935 1.56684 8.79453 1.84824C8.92971 2.12964 8.99992 2.43782 8.99997 2.75V15.6667C8.99997 16.1087 8.82437 16.5326 8.51181 16.8452C8.19925 17.1577 7.77533 17.3333 7.3333 17.3333C6.89127 17.3333 6.46735 17.1577 6.15479 16.8452C5.84223 16.5326 5.66664 16.1087 5.66664 15.6667M8.99997 4.83333C8.99997 5.49638 9.26336 6.13226 9.7322 6.6011C10.201 7.06994 10.8369 7.33333 11.5 7.33333M13.1666 10.6667C13.5304 10.6672 13.8897 10.7471 14.2193 10.9008C14.549 11.0546 14.8412 11.2784 15.0755 11.5567C15.3097 11.8349 15.4804 12.161 15.5757 12.5121C15.6709 12.8632 15.6884 13.2308 15.6269 13.5893C15.5654 13.9478 15.4264 14.2886 15.2196 14.5879C15.0128 14.8872 14.7432 15.1377 14.4296 15.322C14.116 15.5063 13.7659 15.62 13.4039 15.655C13.0418 15.6901 12.6765 15.6457 12.3333 15.525" stroke="#FFB21E" stroke-width="1.25" stroke-linecap="round" stroke-linejoin="round"/>
</svg>
